<?xml version="1.0" standalone="no"?>
<!DOCTYPE svg PUBLIC "-//W3C//DTD SVG 20010904//EN"
 "http://www.w3.org/TR/2001/REC-SVG-20010904/DTD/svg10.dtd">
<svg version="1.0" xmlns="http://www.w3.org/2000/svg"
 width="788.000000pt" height="1280.000000pt" viewBox="0 0 788.000000 1280.000000"
 preserveAspectRatio="xMidYMid meet">
<metadata>
Created by potrace 1.15, written by Peter Selinger 2001-2017
</metadata>
<g transform="translate(0.000000,1280.000000) scale(0.100000,-0.100000)"
fill="#e91e63" stroke="none">
<path d="M5500 12794 c-8 -2 -946 -179 -2085 -394 -1505 -284 -2093 -398
-2154 -420 -370 -130 -683 -566 -750 -1045 -17 -119 -282 -4320 -282 -4465 0
-151 19 -267 65 -395 61 -169 171 -318 296 -397 70 -45 1617 -711 1690 -728
30 -7 93 -13 140 -13 141 1 212 24 435 138 483 247 891 417 1250 520 155 45
350 91 427 101 l45 6 31 -108 c49 -168 64 -271 69 -479 7 -266 -18 -430 -103
-676 -168 -485 -569 -972 -1049 -1274 -107 -68 -316 -170 -435 -214 l-85 -31
-75 72 c-42 40 -98 85 -125 100 -56 30 -1561 679 -1615 696 -114 37 -269 33
-400 -9 -311 -102 -587 -412 -715 -802 -53 -165 -70 -278 -69 -467 1 -294 57
-454 269 -775 230 -347 530 -629 870 -818 117 -65 1653 -730 1830 -793 654
-230 1437 -134 2232 272 1101 564 2024 1674 2433 2929 332 1017 320 2120 -32
3005 -209 526 -532 942 -943 1215 -163 108 -241 147 -675 333 -217 93 -588
253 -825 355 -448 193 -552 232 -722 273 -198 48 -351 65 -618 70 l-250 5 2
27 c2 15 12 187 24 382 12 195 23 357 25 359 2 2 749 145 1661 317 912 173
1680 321 1708 330 127 42 289 148 391 255 174 185 308 445 366 712 18 85 22
134 22 292 0 163 -3 202 -22 278 -64 254 -200 455 -370 545 -126 67 -1599 695
-1662 708 -59 12 -182 17 -220 8z"/>
</g>
</svg>
